<svg width="728" height="410" viewBox="0 0 728 410" fill="none" xmlns="http://www.w3.org/2000/svg">
<path d="M366.199 5.5H371.699L411.799 63.6V5.5H416.999V72.7H411.899L371.399 14.2V72.7H366.299V5.5H366.199Z" fill="black"/>
<path fill-rule="evenodd" clip-rule="evenodd" d="M448.3 23.5C435.5 23.5 427.6 34.6 427.6 48.2C427.6 62 434.4 73.8 449.2 73.8C455.045 73.926 460.782 72.2119 465.6 68.9L463.4 64.8C459.355 67.7249 454.491 69.2996 449.5 69.3C437.9 69.3 433.3 59.2 433.2 48.2V47.1H466.4C467.4 33.4 460.6 23.5 448.3 23.5ZM448.1 28.1C457.3 28.1 461 35.5 461.1 42.8H433.5C434.9 34.6 439.7 28.1 448.1 28.1Z" fill="black"/>
<path d="M472 24.6001H477.7L489.4 64.7001L502 24.6001H507.1L519.7 64.8001L531.5 24.6001H536.8L522.3 72.8001H517.5L504.5 32.2001L491.5 72.8001H486.7L472 24.6001Z" fill="black"/>
<path d="M583.199 47.4L560.699 5.5H566.999L586.099 41.8H586.299L605.399 5.5H611.099L588.699 47.4V72.7H583.199V47.4Z" fill="black"/>
<path fill-rule="evenodd" clip-rule="evenodd" d="M628.1 23.5C613 23.5 606.5 36.6 606.5 48.7C606.5 60.8 613 73.8 628.2 73.8C643.3 73.8 650.2 60.6 650.2 48.5C650.2 36.5 643.2 23.5 628.1 23.5ZM627.8 28C638.8 28 644.6 37.9 644.6 48.7C644.6 59.6 639.3 69.3 628.2 69.3C617.3 69.3 611.9 59.4 611.9 48.5C611.9 37.7 616.9 28 627.8 28Z" fill="black"/>
<path d="M660.299 24.5999H665.599V32.9999C667.399 29.4999 671.799 23.4999 678.499 23.4999C680.068 23.4881 681.626 23.7591 683.099 24.2999L681.799 29.1999C680.559 28.7074 679.233 28.4694 677.899 28.4999C671.199 28.4999 666.899 36.3999 665.599 39.1999V72.6999H660.299L660.299 24.5999Z" fill="black"/>
<path fill-rule="evenodd" clip-rule="evenodd" d="M697.999 0H692.799V72.7H697.999V0ZM719.599 24.6L698.499 45.7L720.699 72.8H727.299L704.899 45.7L726.199 24.6H719.599Z" fill="black"/>
<path fill-rule="evenodd" clip-rule="evenodd" d="M380.899 106.7H366.299H366.199V174H371.799V145.4H380.299C395.499 145.4 403.899 137.8 403.899 125.7C403.899 113.7 394.999 106.7 380.899 106.7ZM398.299 125.9C398.299 134.7 392.999 140.6 380.199 140.6V140.7H371.799V111.5H380.399C393.299 111.5 398.299 117.5 398.299 125.9Z" fill="black"/>
<path d="M412.398 159.8V125.8H417.698V158.7C417.698 165.8 420.198 170.3 427.598 170.3C434.798 170.3 440.698 163.5 442.298 160.7V125.8H447.498V164.7C447.445 167.824 447.747 170.944 448.398 174H442.998C442.566 171.388 442.332 168.748 442.298 166.1C439.998 169.7 434.498 175.1 426.298 175.1C416.398 175 412.398 168.4 412.398 159.8Z" fill="black"/>
<path fill-rule="evenodd" clip-rule="evenodd" d="M460.699 101.2V171.4C463.999 173.6 469.399 175 475.099 174.9C489.799 174.9 498.899 163.1 498.899 149.6C498.899 135.6 492.199 124.6 478.499 124.6C473.704 124.636 469.139 126.664 465.899 130.2V101.2H460.699ZM477.599 129.4C489.399 129.4 493.399 139.4 493.399 149.9C493.399 159.9 487.499 170.5 475.299 170.5C472.064 170.566 468.855 169.917 465.899 168.6V134.9C468.924 131.599 473.128 129.623 477.599 129.4Z" fill="black"/>
<path d="M509.699 101.2H514.999V173.9H509.699V101.2Z" fill="black"/>
<path fill-rule="evenodd" clip-rule="evenodd" d="M531.26 108.037C530.03 108.754 529.281 110.077 529.3 111.5C529.245 112.947 529.986 114.307 531.231 115.047C532.475 115.786 534.024 115.786 535.269 115.047C536.513 114.307 537.254 112.947 537.2 111.5C537.218 110.077 536.469 108.754 535.24 108.037C534.01 107.32 532.489 107.32 531.26 108.037ZM536 125.7H530.6V173.9H536V125.7Z" fill="black"/>
<path d="M546.1 149.8C546.1 134.6 554.9 124.7 567.3 124.7C574.5 124.7 579 127.4 581.6 129.7L578.9 133.5C575.666 130.668 571.497 129.136 567.2 129.2C556.5 129.2 551.7 138.5 551.7 149.6C551.7 160.3 556.4 170.5 567.1 170.5C571.574 170.535 575.921 169.015 579.4 166.2L581.7 170.1C579.1 172.4 574 175 566.8 175C552.9 175 546.1 162.7 546.1 149.8Z" fill="black"/>
<path d="M364.801 275.1V207.9H379.101V263.6H404.101V275.1H364.801Z" fill="black"/>
<path fill-rule="evenodd" clip-rule="evenodd" d="M415.705 217.167C417.246 218.689 419.334 219.53 421.501 219.5C424.429 219.608 427.183 218.107 428.679 215.588C430.175 213.068 430.175 209.932 428.679 207.412C427.183 204.893 424.429 203.392 421.501 203.5C419.361 203.443 417.287 204.247 415.746 205.732C414.204 207.217 413.323 209.259 413.301 211.4C413.297 213.567 414.164 215.644 415.705 217.167ZM414.801 225.9V275.1H428.301V225.9H414.801Z" fill="black"/>
<path fill-rule="evenodd" clip-rule="evenodd" d="M453.601 229.8V202.4H440.201V272.4C442.501 273.5 449.301 276.3 460.401 276.3C475.201 276.3 486.501 267 486.501 250.2C486.501 233.3 477.901 224.8 465.601 224.8C461.111 224.879 456.819 226.667 453.601 229.8ZM460.401 265.8C458.086 265.85 455.782 265.477 453.601 264.7V239.1C455.767 236.814 458.753 235.482 461.901 235.4C469.201 235.4 472.301 241 472.301 250.2C472.301 260.2 467.901 265.8 460.401 265.8Z" fill="black"/>
<path d="M524.2 237.7C522.605 236.852 520.803 236.471 519 236.6C513 236.6 509.5 241.9 508.3 244.1V275.1H494.9V225.9H508.3V232.6C510.4 229 514.5 224.7 520.7 224.7C524.3 224.7 526.3 225.4 527.4 226L524.2 237.7Z" fill="black"/>
<path fill-rule="evenodd" clip-rule="evenodd" d="M559 269.8C559.09 271.589 559.358 273.365 559.8 275.1V275H573C571.999 270.233 571.529 265.37 571.6 260.5V242.8C571.6 229.7 565.2 224.6 551.8 224.6C541.3 224.6 534.8 229.1 531.9 231.7L537.8 239.9C541.344 237.027 545.74 235.409 550.3 235.3C556.6 235.3 558.3 238 558.3 242.2V245H556.6C543.6 245 530.4 249.7 530.4 262.5C530.4 271.3 536.8 276.3 545.2 276.3C550.529 276.253 555.571 273.879 559 269.8ZM556.5 253.3H558.2H558.3V262.2C556.028 264.878 552.712 266.445 549.2 266.5C546.1 266.5 543.2 265 543.2 261.4C543.2 255.6 548.6 253.3 556.5 253.3Z" fill="black"/>
<path d="M611.6 237.7C610.037 236.862 608.27 236.481 606.5 236.6C600.5 236.6 597 241.9 595.8 244.1V275.1H582.4V225.9H595.8V232.6C597.9 229 602 224.7 608.2 224.7C611.8 224.7 613.8 225.4 614.9 226L611.6 237.7Z" fill="black"/>
<path d="M619.7 225.9H634L644.9 258.3H645.4L655.4 225.9H669.2L648.9 280.3C644.6 291.9 639.4 298.7 626 298.7C623.437 298.762 620.878 298.459 618.4 297.8L620.3 287.2C621.832 287.609 623.417 287.777 625 287.7C631.9 287.7 634.3 284.4 636.2 279.1L638 274.1L619.7 225.9Z" fill="black"/>
<path d="M184.301 196.6C182.301 192.8 176.501 191.9 170.401 192.2C167.15 192.286 163.923 192.79 160.801 193.7C157.401 194.7 152.801 197 154.801 201.7C156.101 204.9 160.701 206.2 164.001 207.3C167.801 208.6 172.001 209.6 174.901 211.3C176.601 212.3 178.401 214.9 180.801 214.6C183.201 214.3 184.701 209.5 185.201 207.1C185.901 203.4 185.601 198.9 184.301 196.6Z" fill="black"/>
<path fill-rule="evenodd" clip-rule="evenodd" d="M156.4 97C71.3 97 2 166.2 2 252.2C2 338.2 71.8 407.5 156.5 407.5C242.5 407.5 312.2 338.3 312.2 252.3C312.1 166.2 242.4 97 156.4 97ZM65.8 361.1C63.487 359.136 61.5549 356.763 60.1 354.1C46.9 333 39.5 258.4 56.5 233.1C61.9 224.2 67.6 228.3 65.7 235.2C62.4 250.6 64.4 259.2 71.9 275.9C80.2389 293.426 100.813 315.796 115.553 331.822C121.671 338.474 126.784 344.034 129.6 347.7C146.1 369.1 151.6 384.7 151.5 388.9C151.4 392.1 150.8 394.2 145.1 393.7C115.4 391.4 86.5 379 65.8 361.1ZM293.276 290.673C293.318 290.548 293.359 290.423 293.4 290.3C318.3 206.2 256.4 107.1 148.9 111C142.1 111.4 136.5 113.5 141.5 117.4C156.8 129.2 165 144.5 167.9 158.4C168.1 159.6 168.7 160.3 170.3 160.8C177.3 162.7 195 169.7 200.5 173.9C202.679 175.564 204.843 177.794 207.084 180.103C210.499 183.622 214.094 187.326 218.2 189.5C226.036 193.645 233.746 197.034 241.221 200.321L241.222 200.321L241.224 200.322C245.291 202.11 249.289 203.868 253.2 205.7C258.1 207.9 267.1 213.9 266.5 221C266.407 222.117 266.14 223.192 265.882 224.232C265.586 225.427 265.3 226.578 265.3 227.7C265.3 228.995 265.832 230.441 266.334 231.806C266.646 232.655 266.947 233.471 267.1 234.2C268.124 239.063 268.394 244.055 267.9 249C267.2 254.3 265.5 262.7 262.5 267.6C262.192 268.077 261.852 268.522 261.516 268.962C260.653 270.092 259.816 271.189 259.6 272.7C259.293 274.689 258.756 276.635 258 278.5C257.7 279 257.7 279.9 258.3 280C270.1 284.4 282.4 292.3 287.9 296.4C290.701 298.428 292.102 294.207 293.276 290.673ZM249.7 242.7C249.6 242.2 249.4 240.3 249.4 239.9C249.4 239.074 250.764 238.044 251.802 237.259C252.021 237.094 252.226 236.939 252.4 236.8C253.689 235.728 255.06 234.758 256.5 233.9C256.82 233.74 257.012 234.028 257.127 234.201L257.149 234.234C257.158 234.246 257.166 234.258 257.173 234.268C257.183 234.281 257.192 234.292 257.2 234.3C261.2 240.3 259.7 255.2 256.8 262.3C256.5 263 255.9 263.3 255.6 262.8C254.1 259.6 252 256.7 249.5 255.2C249.169 254.89 248.987 254.453 249 254C249.997 250.32 250.236 246.475 249.7 242.7ZM157.3 171C139.6 166.7 124.8 172.3 119.7 176.4C110.1 184 102.6 196.3 105.6 213.8C106.8 221.3 109.1 227.6 112.8 232.8C123.022 247.304 139.492 255.082 155.952 262.855L155.952 262.855C163.324 266.336 170.694 269.817 177.5 273.9C177.813 274.153 178.217 274.264 178.615 274.208C179.014 274.151 179.37 273.931 179.6 273.6L179.637 273.546C183.32 268.171 186.321 263.791 192.5 261.2C198.08 258.897 206.561 259.34 214.403 259.749C215.415 259.802 216.417 259.854 217.4 259.9C226.3 260.3 235.9 259.5 239.1 254.9C243 249.4 242.8 238.4 236.9 235C235.198 234.042 233.071 233.566 230.941 233.089L230.941 233.089C229.067 232.669 227.191 232.249 225.6 231.5C223.1 230.4 221.2 228.2 219.8 225.2C218.7 222.7 217.6 218.6 219.1 215.9C220.378 213.443 223.78 214.173 226.554 214.769L226.7 214.8C232.2 216.1 241.5 217.4 246.8 215.1C248.3 214.3 242.7 210.5 240.6 209.5C235.664 207.056 230.021 205.186 224.387 203.319L224.387 203.319C218.037 201.215 211.699 199.114 206.4 196.2C202.853 194.224 199.688 191.684 196.509 189.131C192.607 185.999 188.683 182.849 184 180.7C175.385 176.73 166.454 173.486 157.3 171ZM85.4 136.8C81.1 136.3 81 133.1 82.8 131.9C89.1217 127.747 95.8579 124.261 102.9 121.5C104.631 120.636 106.585 120.322 108.5 120.6C114.2 121.2 123.6 125 134.4 132.7C147.3 141.9 158.9 159.5 151.2 158.1C148.391 157.546 145.553 157.146 142.7 156.9C139.393 156.615 136.703 156.687 134.501 156.747C132.842 156.792 131.46 156.829 130.3 156.7C129.185 156.495 128.167 155.934 127.4 155.1C116.5 145.3 103.9 139.1 85.4 136.8ZM204.4 274.2C202.543 275.368 201.188 277.186 200.6 279.3C200.538 279.507 200.441 279.796 200.329 280.131L200.329 280.131L200.329 280.132C199.9 281.416 199.241 283.386 199.4 284.1C199.555 284.953 200.732 286.166 201.626 287.088L201.626 287.088C201.885 287.355 202.12 287.598 202.3 287.8C204.272 290.15 206.375 292.387 208.6 294.5C209.692 295.634 210.938 296.611 212.3 297.4C213.685 298.093 215.604 298.252 217.691 298.426L217.691 298.426H217.692C218.316 298.478 218.955 298.531 219.6 298.6L219.68 298.608C227.359 299.406 235.815 300.285 240.1 295.9C240.6 295.4 240.8 293.9 240.9 292.9C241.373 289.824 242.899 287.442 244.428 285.055C246.13 282.398 247.837 279.735 248.1 276.1C248.27 274.066 247.997 272.019 247.3 270.1C246.801 268.367 245.606 266.919 244 266.1C241.214 264.927 239.181 266.334 237.348 267.602C236.681 268.063 236.041 268.506 235.4 268.8C231.674 270.57 226.213 270.951 220.956 271.319C220.569 271.346 220.184 271.373 219.8 271.4C219.119 271.447 218.436 271.49 217.754 271.532C212.625 271.854 207.577 272.17 204.4 274.2ZM52.7 156.7C53.5854 155.709 54.7275 154.983 56 154.6C74.0548 150.224 93.0432 151.838 110.1 159.2C113.3 160.6 114.8 162.6 112.7 164C110 165.6 101.9 170.9 97.4 175.1C96.1 176.2 93.8 176.3 92.4 176.1L91.8362 176.026C75.4 173.872 66.5166 172.708 41.6 182.2C37.7 183.8 34.2 181.6 36 178.6C39.3 172.5 47.1 162.4 52.7 156.7ZM19.2 220.7C18.3409 221.755 17.8184 223.044 17.7 224.4C11.3 255.5 16.4 281.5 22.5 298.1C23.9 301.7 29.5 300.3 29.3 292.6C29.3371 291.206 29.351 289.663 29.3662 287.988V287.988C29.5559 267.063 29.9325 225.509 77.8 196.9C80.7 195.2 83.2 193.5 82 190.5C81.3 188.8 78.2 188.5 74 189.1C41.7 194.8 20.9 218.1 19.2 220.7ZM82.9 260.5C73.8 238.3 79.7 218.4 83.8 210.8C85.8 207 87.8 204.5 90.4 205.2C93.2 206 93.9 208.9 94.3 214.2C97.2 258.5 124 273.4 157.6 289.1C184.2 302.7 214.4 318.2 239.7 355.8C243.5 361.2 244.1 364.5 239.8 367.6C224.4 378.1 210.4 385.5 189.9 390.3C186.8 391 183.6 390.5 180.9 383.4C165.417 343.633 144.237 326.444 124.641 310.54C108.167 297.169 92.811 284.707 82.9 260.5ZM250.7 348.8C252.1 351.5 254.6 354.9 258.9 350.6C266.3 343.3 276.8 329.2 280.3 322.4C280.381 322.224 280.471 322.045 280.564 321.86C281.157 320.681 281.851 319.302 280.9 317.4C279.2 313.9 269.7 303.2 263.3 298.3L263.223 298.242C260.731 296.347 257.367 293.791 254.2 292.9C253.39 292.659 252.544 292.557 251.7 292.6C249.346 292.872 249.041 293.963 248.114 297.284C248.017 297.631 247.914 298.003 247.8 298.4C246.1 304.2 242.8 308.3 239.9 309.5C237.219 310.757 234.241 311.241 231.3 310.9C228.8 310.7 227.5 313 229.2 314.7C238.7 325.1 244.6 335.9 250.7 348.8Z" fill="black"/>
<path d="M164.1 207.3C167.9 208.6 172.1 209.6 175 211.3C176.7 212.3 178.5 214.9 180.9 214.6C183.3 214.3 184.8 209.5 185.3 207.1C186 203.5 185.6 199 184.4 196.7C182.4 192.9 176.6 192 170.5 192.3C167.249 192.386 164.023 192.89 160.9 193.8C157.5 194.8 152.9 197.1 154.9 201.8C156.2 204.8 160.8 206.2 164.1 207.3Z" fill="black"/>
</svg>
